<svg width="123" height="36" viewBox="0 0 123 36" fill="none" xmlns="http://www.w3.org/2000/svg">
<path d="M27.2232 4.99658C25.4793 8.28868 23.8151 16.7414 31.1096 24.2153C33.7504 21.3385 36.6702 13.4671 27.2232 4.99658Z" fill="#007074"/>
<path d="M33.0887 31.9029C31.9257 28.0794 33.9544 18.6697 50.8558 8.24902C49.6067 16.4145 44.2012 31.9029 33.0887 31.9029Z" fill="#007074"/>
<path d="M29.1523 32.9152C10.5296 35.0016 -0.373246 14.3168 0.252769 3.03272C2.03987 3.33235 11.6194 7.0403 21.1609 16.4681C30.233 27.3176 32.9387 32.491 29.1523 32.9152Z" fill="#007074"/>
<path d="M68.0143 22.5499C68.0143 23.2737 67.6382 24.1536 66.886 25.1897C65.5945 26.9637 63.9056 28.5674 61.8194 30.0009V30.1286L68.2911 29.8093V31.2356H60.0311V30.2137C61.493 29.3196 62.8767 28.1204 64.1824 26.616C65.5023 25.0974 66.1622 23.7492 66.1622 22.5712C66.1622 21.379 65.5803 20.5488 64.4166 20.0804C63.4089 20.0804 62.2522 20.2791 60.9465 20.6765L60.5208 19.3353C61.4859 19.0373 62.5006 18.8883 63.565 18.8883C65.1546 18.8883 66.29 19.2431 66.9712 19.9527C67.6666 20.6481 68.0143 21.5139 68.0143 22.5499ZM74.7663 18.9522C76.0152 18.9522 77.0442 19.4702 77.8531 20.5062C78.6763 21.5281 79.0879 22.9686 79.0879 24.8278C79.0879 26.0199 78.9247 27.0702 78.5982 27.9785C78.2718 28.8726 77.846 29.5609 77.3209 30.0434C76.2991 31.0085 75.1637 31.4911 73.9148 31.4911C72.6658 31.4911 71.6298 30.9588 70.8067 29.8944C69.9977 28.83 69.5932 27.3682 69.5932 25.509C69.5932 24.3168 69.7564 23.2808 70.0828 22.4009C70.4093 21.5068 70.835 20.8184 71.3602 20.3359C72.382 19.4134 73.5174 18.9522 74.7663 18.9522ZM77.108 25.211C77.108 23.7633 76.8313 22.5428 76.2778 21.5493C75.7243 20.5417 75.0218 20.0379 74.1702 20.0379C73.3329 20.0379 72.6729 20.492 72.1904 21.4003C71.7079 22.3086 71.4666 23.5363 71.4666 25.0832C71.4666 26.6302 71.7362 27.9217 72.2756 28.9577C72.8291 29.9796 73.4961 30.4905 74.2767 30.4905C76.1642 30.4905 77.108 28.7307 77.108 25.211ZM88.4158 22.5499C88.4158 23.2737 88.0397 24.1536 87.2875 25.1897C85.996 26.9637 84.3071 28.5674 82.2208 30.0009V30.1286L88.6925 29.8093V31.2356H80.4326V30.2137C81.8944 29.3196 83.2781 28.1204 84.5838 26.616C85.9037 25.0974 86.5637 23.7492 86.5637 22.5712C86.5637 21.379 85.9818 20.5488 84.818 20.0804C83.8104 20.0804 82.6537 20.2791 81.348 20.6765L80.9222 19.3353C81.8873 19.0373 82.902 18.8883 83.9665 18.8883C85.556 18.8883 86.6914 19.2431 87.3726 19.9527C88.068 20.6481 88.4158 21.5139 88.4158 22.5499ZM98.6165 22.5499C98.6165 23.2737 98.2404 24.1536 97.4882 25.1897C96.1967 26.9637 94.5078 28.5674 92.4215 30.0009V30.1286L98.8932 29.8093V31.2356H90.6333V30.2137C92.0951 29.3196 93.4789 28.1204 94.7846 26.616C96.1044 25.0974 96.7644 23.7492 96.7644 22.5712C96.7644 21.379 96.1825 20.5488 95.0187 20.0804C94.0111 20.0804 92.8544 20.2791 91.5487 20.6765L91.1229 19.3353C92.088 19.0373 93.1028 18.8883 94.1672 18.8883C95.7567 18.8883 96.8921 19.2431 97.5733 19.9527C98.2688 20.6481 98.6165 21.5139 98.6165 22.5499Z" fill="black"/>
</svg>
