<svg width="233" height="37" viewBox="0 0 233 37" fill="none" xmlns="http://www.w3.org/2000/svg">
<path d="M27.2232 5.28613C25.4793 8.57823 23.8151 17.0309 31.1096 24.5049C33.7504 21.628 36.6702 13.7566 27.2232 5.28613Z" fill="#007074"/>
<path d="M33.0887 32.1923C31.9257 28.3688 33.9544 18.9591 50.8558 8.53845C49.6067 16.7039 44.2012 32.1923 33.0887 32.1923Z" fill="#007074"/>
<path d="M29.1523 33.2047C10.5296 35.291 -0.373246 14.6062 0.252769 3.32215C2.03987 3.62178 11.6194 7.32973 21.1609 16.7575C30.233 27.607 32.9387 32.7805 29.1523 33.2047Z" fill="#007074"/>
<path d="M70.2283 21.0938C70.2283 22.4563 69.7245 23.4923 68.7168 24.2019C67.7234 24.8973 66.368 25.245 64.6507 25.245H62.8199V31.5251H60.755V17.4322H65.332C66.7654 17.4322 67.9363 17.7586 68.8446 18.4115C69.7671 19.0643 70.2283 19.9584 70.2283 21.0938ZM62.8199 24.6277H64.7146C65.3816 24.6277 65.9493 24.5 66.4177 24.2445C66.9002 23.989 67.2479 23.6626 67.4608 23.2652C67.844 22.5556 68.0356 21.8673 68.0356 21.2002C68.0356 20.8738 67.9505 20.4835 67.7801 20.0294C67.4395 19.0927 66.737 18.4824 65.6726 18.1986C64.6507 18.1986 63.6999 18.3192 62.8199 18.5605V24.6277ZM73.4017 16.9851V31.5251H71.6135V16.9851H73.4017ZM80.63 29.2686V27.0759C79.6082 27.1468 78.7708 27.3739 78.118 27.7571C77.4651 28.1403 77.1387 28.5519 77.1387 28.9918C77.1387 29.4318 77.2522 29.815 77.4793 30.1414C77.7064 30.4536 77.9973 30.6736 78.3521 30.8013C78.8205 30.7162 79.3172 30.482 79.8423 30.0988C80.3674 29.7156 80.63 29.4389 80.63 29.2686ZM82.3757 28.6938C82.3757 29.7014 82.7447 30.4678 83.4827 30.9929L82.3757 31.8019L80.6513 30.2478C79.5301 31.2697 78.4941 31.7806 77.5432 31.7806C76.9187 31.7806 76.3794 31.5819 75.9253 31.1845C75.4853 30.7871 75.2653 30.2904 75.2653 29.6943C75.2653 29.0841 75.4427 28.5802 75.7975 28.1829C76.1665 27.7855 76.6491 27.4803 77.2451 27.2675C78.267 26.8843 79.3953 26.643 80.63 26.5436V24.5425C80.63 23.3646 79.9488 22.7756 78.5863 22.7756C77.8057 22.7756 76.8832 22.9459 75.8188 23.2865L75.6272 22.7543C75.9111 22.5272 76.4007 22.286 77.0961 22.0305C77.8057 21.775 78.4799 21.6473 79.1185 21.6473C79.7572 21.6473 80.2894 21.7325 80.7152 21.9028C81.1551 22.0731 81.4744 22.2647 81.6731 22.4776C81.886 22.6904 82.0492 22.9814 82.1628 23.3504C82.2763 23.7194 82.3402 24.0103 82.3544 24.2232C82.3686 24.4361 82.3757 24.7199 82.3757 25.0747V28.6938ZM87.0272 23.2652C87.6233 22.6975 88.1413 22.286 88.5813 22.0305C89.0355 21.775 89.5677 21.6473 90.1779 21.6473C90.7882 21.6473 91.3488 21.8886 91.8597 22.3711C92.3848 22.8536 92.6474 23.6839 92.6474 24.8619V31.5251H90.8379V25.0747C90.8379 24.3793 90.7101 23.8613 90.4547 23.5207C90.2134 23.1659 89.7876 22.9885 89.1774 22.9885C88.5813 22.9885 87.8859 23.3859 87.0911 24.1806V31.5251H85.2816V24.8406C85.2816 23.8755 84.9197 23.102 84.1959 22.5201L85.2816 21.7112L87.0272 23.2652ZM97.5047 29.6518C97.5047 30.0775 97.5899 30.3969 97.7602 30.6097C97.9305 30.8226 98.2143 30.9291 98.6117 30.9291C99.0091 30.9291 99.4845 30.8226 100.038 30.6097V31.2058C99.2149 31.589 98.4769 31.7806 97.824 31.7806C97.1712 31.7806 96.6532 31.6032 96.27 31.2484C95.901 30.8794 95.7165 30.3117 95.7165 29.5453V22.6691L93.9921 22.3285V21.9028H95.7165V21.1364L97.5047 19.8378V21.9028H100.038V22.6691H97.5047V29.6518ZM106.409 29.2686V27.0759C105.387 27.1468 104.55 27.3739 103.897 27.7571C103.244 28.1403 102.918 28.5519 102.918 28.9918C102.918 29.4318 103.031 29.815 103.258 30.1414C103.485 30.4536 103.776 30.6736 104.131 30.8013C104.599 30.7162 105.096 30.482 105.621 30.0988C106.146 29.7156 106.409 29.4389 106.409 29.2686ZM108.155 28.6938C108.155 29.7014 108.524 30.4678 109.262 30.9929L108.155 31.8019L106.43 30.2478C105.309 31.2697 104.273 31.7806 103.322 31.7806C102.698 31.7806 102.158 31.5819 101.704 31.1845C101.264 30.7871 101.044 30.2904 101.044 29.6943C101.044 29.0841 101.222 28.5802 101.577 28.1829C101.946 27.7855 102.428 27.4803 103.024 27.2675C104.046 26.8843 105.174 26.643 106.409 26.5436V24.5425C106.409 23.3646 105.728 22.7756 104.365 22.7756C103.585 22.7756 102.662 22.9459 101.598 23.2865L101.406 22.7543C101.69 22.5272 102.18 22.286 102.875 22.0305C103.585 21.775 104.259 21.6473 104.898 21.6473C105.536 21.6473 106.068 21.7325 106.494 21.9028C106.934 22.0731 107.253 22.2647 107.452 22.4776C107.665 22.6904 107.828 22.9814 107.942 23.3504C108.055 23.7194 108.119 24.0103 108.133 24.2232C108.148 24.4361 108.155 24.7199 108.155 25.0747V28.6938ZM112.806 23.2652C113.402 22.6975 113.92 22.286 114.36 22.0305C114.814 21.775 115.347 21.6473 115.957 21.6473C116.567 21.6473 117.128 21.8886 117.639 22.3711C118.164 22.8536 118.426 23.6839 118.426 24.8619V31.5251H116.617V25.0747C116.617 24.3793 116.489 23.8613 116.234 23.5207C115.992 23.1659 115.567 22.9885 114.956 22.9885C114.36 22.9885 113.665 23.3859 112.87 24.1806V31.5251H111.061V24.8406C111.061 23.8755 110.699 23.102 109.975 22.5201L111.061 21.7112L112.806 23.2652ZM128.585 28.6725C128.585 29.6518 128.946 30.4323 129.67 31.0142L128.585 31.8019L126.839 30.2478C126.271 30.7871 125.76 31.1774 125.306 31.4187C124.852 31.66 124.384 31.7806 123.901 31.7806C123.419 31.7806 122.993 31.7096 122.624 31.5677C122.255 31.4258 121.864 31.1916 121.453 30.8652C121.056 30.5246 120.729 29.9995 120.474 29.2899C120.232 28.5661 120.112 27.6365 120.112 26.5011C120.112 25.3657 120.445 24.28 121.112 23.2439C121.794 22.1937 122.723 21.6686 123.901 21.6686C124.781 21.6686 125.739 21.995 126.775 22.6479V16.9851H128.585V28.6725ZM126.775 29.375V23.4355C126.023 22.9388 125.334 22.6904 124.71 22.6904C123.887 22.6904 123.227 23.0807 122.73 23.8613C122.233 24.6277 121.985 25.5928 121.985 26.7565C121.985 27.9203 122.163 28.857 122.517 29.5666C122.886 30.262 123.34 30.6807 123.88 30.8226C124.377 30.7801 124.859 30.6594 125.327 30.4607C125.81 30.262 126.172 30.0633 126.413 29.8646C126.654 29.6518 126.775 29.4886 126.775 29.375ZM135.464 21.6473C136.713 21.6473 137.742 22.0731 138.551 22.9246C139.374 23.7761 139.786 24.947 139.786 26.4372C139.786 27.3881 139.623 28.2254 139.296 28.9492C138.97 29.6731 138.544 30.2336 138.019 30.631C137.011 31.3974 135.883 31.7806 134.634 31.7806C133.399 31.7806 132.37 31.3548 131.547 30.5033C130.738 29.6518 130.334 28.4809 130.334 26.9907C130.334 26.0398 130.49 25.2025 130.802 24.4787C131.129 23.7549 131.554 23.1943 132.079 22.7969C133.087 22.0305 134.215 21.6473 135.464 21.6473ZM135.038 31.0568C135.663 31.0568 136.195 30.8155 136.635 30.333C137.43 29.4815 137.827 28.3532 137.827 26.9481C137.827 25.5289 137.586 24.429 137.103 23.6484C136.621 22.8536 135.833 22.4563 134.74 22.4563C133.931 22.7685 133.314 23.322 132.888 24.1168C132.477 24.8973 132.271 25.8482 132.271 26.9694C132.271 28.0764 132.498 29.0344 132.952 29.8434C133.406 30.6523 134.102 31.0568 135.038 31.0568ZM146.754 31.5251V17.4322H155.291L155.078 18.8585L151.118 18.1986C150.423 18.1986 149.657 18.3192 148.819 18.5605V23.7336H153.545V24.5425H148.819V30.7588L155.419 30.0988L155.206 31.5251H146.754ZM168.866 21.6473C170.541 21.6473 171.378 22.9175 171.378 25.4579V31.5251H169.59V25.2876C169.59 24.0955 169.363 23.3717 168.909 23.1162C168.682 22.9885 168.363 22.9246 167.951 22.9246C167.554 22.9246 167.121 23.0523 166.652 23.3078C166.198 23.5491 165.865 23.8258 165.652 24.1381V31.5251H163.842V25.1812C163.842 24.429 163.729 23.8684 163.502 23.4994C163.275 23.1162 162.941 22.9246 162.501 22.9246C162.061 22.9246 161.635 23.024 161.224 23.2226C160.826 23.4213 160.507 23.62 160.266 23.8187C160.025 24.0174 159.904 24.138 159.904 24.1806V31.5251H158.116V24.8406C158.116 23.8755 157.754 23.102 157.03 22.5201L158.116 21.7112L159.819 23.2652C160.486 22.7117 161.068 22.3072 161.564 22.0518C162.061 21.7821 162.579 21.6473 163.118 21.6473C164.353 21.6473 165.12 22.2221 165.418 23.3717C165.914 22.804 166.482 22.3782 167.121 22.0944C167.759 21.7963 168.341 21.6473 168.866 21.6473ZM178.18 21.6473C179.429 21.6473 180.458 22.0731 181.267 22.9246C182.09 23.7761 182.501 24.947 182.501 26.4372C182.501 27.3881 182.338 28.2254 182.012 28.9492C181.685 29.6731 181.26 30.2336 180.734 30.631C179.727 31.3974 178.598 31.7806 177.35 31.7806C176.115 31.7806 175.086 31.3548 174.263 30.5033C173.454 29.6518 173.049 28.4809 173.049 26.9907C173.049 26.0398 173.205 25.2025 173.518 24.4787C173.844 23.7549 174.27 23.1943 174.795 22.7969C175.803 22.0305 176.931 21.6473 178.18 21.6473ZM177.754 31.0568C178.378 31.0568 178.911 30.8155 179.351 30.333C180.145 29.4815 180.543 28.3532 180.543 26.9481C180.543 25.5289 180.302 24.429 179.819 23.6484C179.336 22.8536 178.549 22.4563 177.456 22.4563C176.647 22.7685 176.03 23.322 175.604 24.1168C175.192 24.8973 174.987 25.8482 174.987 26.9694C174.987 28.0764 175.214 29.0344 175.668 29.8434C176.122 30.6523 176.817 31.0568 177.754 31.0568ZM187.529 31.7806C186.294 31.7806 185.265 31.3619 184.442 30.5246C183.633 29.6731 183.229 28.4738 183.229 26.9268C183.229 25.3799 183.662 24.1168 184.527 23.1375C185.407 22.144 186.521 21.6473 187.87 21.6473C188.622 21.6473 189.466 21.8318 190.403 22.2008L190.19 23.6058C188.941 22.953 187.87 22.6266 186.975 22.6266C186.237 22.9956 185.705 23.5916 185.379 24.4148C185.052 25.238 184.889 26.0469 184.889 26.8417C184.889 27.9203 185.201 28.8215 185.826 29.5453C186.465 30.2549 187.224 30.6097 188.104 30.6097C188.984 30.6097 189.793 30.4181 190.531 30.035V30.7801C189.509 31.4471 188.508 31.7806 187.529 31.7806ZM192.477 31.5251V21.9028H194.244V31.5251H192.477ZM192.264 18.9437C192.264 18.6314 192.363 18.3689 192.562 18.156C192.775 17.9431 193.03 17.8367 193.328 17.8367C193.641 17.8367 193.903 17.9431 194.116 18.156C194.343 18.3689 194.457 18.6243 194.457 18.9224C194.457 19.2204 194.343 19.483 194.116 19.7101C193.903 19.9371 193.648 20.0507 193.35 20.0507C193.052 20.0507 192.796 19.9442 192.583 19.7313C192.37 19.5043 192.264 19.2417 192.264 18.9437ZM201.111 21.6473C202.36 21.6473 203.388 22.0731 204.197 22.9246C205.021 23.7761 205.432 24.947 205.432 26.4372C205.432 27.3881 205.269 28.2254 204.943 28.9492C204.616 29.6731 204.19 30.2336 203.665 30.631C202.658 31.3974 201.529 31.7806 200.28 31.7806C199.046 31.7806 198.017 31.3548 197.194 30.5033C196.385 29.6518 195.98 28.4809 195.98 26.9907C195.98 26.0398 196.136 25.2025 196.448 24.4787C196.775 23.7549 197.201 23.1943 197.726 22.7969C198.733 22.0305 199.862 21.6473 201.111 21.6473ZM200.685 31.0568C201.309 31.0568 201.842 30.8155 202.281 30.333C203.076 29.4815 203.474 28.3532 203.474 26.9481C203.474 25.5289 203.232 24.429 202.75 23.6484C202.267 22.8536 201.48 22.4563 200.387 22.4563C199.578 22.7685 198.96 23.322 198.535 24.1168C198.123 24.8973 197.917 25.8482 197.917 26.9694C197.917 28.0764 198.144 29.0344 198.599 29.8434C199.053 30.6523 199.748 31.0568 200.685 31.0568ZM209.055 23.2652C209.651 22.6975 210.169 22.286 210.609 22.0305C211.063 21.775 211.595 21.6473 212.205 21.6473C212.816 21.6473 213.376 21.8886 213.887 22.3711C214.412 22.8536 214.675 23.6839 214.675 24.8619V31.5251H212.865V25.0747C212.865 24.3793 212.738 23.8613 212.482 23.5207C212.241 23.1659 211.815 22.9885 211.205 22.9885C210.609 22.9885 209.913 23.3859 209.119 24.1806V31.5251H207.309V24.8406C207.309 23.8755 206.947 23.102 206.223 22.5201L207.309 21.7112L209.055 23.2652ZM218.042 26.2882C218.042 27.821 218.383 28.928 219.064 29.6092C219.759 30.2762 220.597 30.6097 221.576 30.6097C222.569 30.6097 223.485 30.4181 224.322 30.035V30.7801C223.158 31.4471 222.044 31.7806 220.98 31.7806C219.603 31.7806 218.489 31.3619 217.638 30.5246C216.786 29.6872 216.36 28.4738 216.36 26.8843C216.36 25.2947 216.829 24.0245 217.765 23.0736C218.716 22.1227 219.859 21.6473 221.193 21.6473C222.229 21.6473 223.094 22.0589 223.79 22.882C224.485 23.691 224.833 24.8264 224.833 26.2882H218.042ZM220.107 22.6479C219.61 22.8891 219.185 23.2794 218.83 23.8187C218.475 24.3438 218.241 24.9541 218.127 25.6495H223.109C223.066 25.0535 222.924 24.5425 222.683 24.1168C222.456 23.691 222.179 23.3788 221.853 23.1801C221.271 22.8253 220.689 22.6479 220.107 22.6479ZM228.94 22.5414C228.571 22.5414 228.266 22.6833 228.025 22.9672C227.797 23.2368 227.684 23.5491 227.684 23.9039C227.684 24.2445 227.847 24.578 228.174 24.9044C228.514 25.2167 228.919 25.5005 229.387 25.756C229.87 25.9972 230.345 26.2527 230.813 26.5224C231.282 26.792 231.679 27.1397 232.005 27.5655C232.346 27.9913 232.516 28.4667 232.516 28.9918C232.516 29.7866 232.197 30.4536 231.558 30.9929C230.92 31.5181 230.047 31.7806 228.94 31.7806C227.847 31.7806 226.847 31.5251 225.938 31.0142V30.2053C226.903 30.6878 227.776 30.9291 228.557 30.9291C229.337 30.9291 229.905 30.773 230.26 30.4607C230.615 30.1485 230.792 29.7937 230.792 29.3963C230.792 28.9847 230.629 28.6228 230.302 28.3106C229.99 27.9842 229.6 27.7003 229.132 27.459C228.677 27.2178 228.223 26.9623 227.769 26.6927C227.315 26.423 226.925 26.0753 226.598 25.6495C226.286 25.2238 226.13 24.7128 226.13 24.1168C226.13 23.5065 226.371 22.9459 226.854 22.435C227.35 21.9099 228.11 21.6473 229.132 21.6473C230.153 21.6473 231.133 21.8318 232.069 22.2008L231.856 23.6058C230.806 23.0381 229.834 22.6833 228.94 22.5414Z" fill="black"/>
</svg>
